<?xml version="1.0" encoding="UTF-8"?>
<svg width="92px" height="40px" viewBox="0 0 92 40" version="1.1" xmlns="http://www.w3.org/2000/svg" xmlns:xlink="http://www.w3.org/1999/xlink">
    <!-- Generator: Sketch 52.5 (67469) - http://www.bohemiancoding.com/sketch -->
    <title>Combined Shape</title>
    <desc>Created with Sketch.</desc>
    <g id="Page-1" stroke="none" stroke-width="1" fill="none" fill-rule="evenodd">
        <g id="1.DVT_SmartPeopleRGB" transform="translate(-243.000000, -115.000000)">
            <g id="Combined-Shape" transform="translate(243.000000, 115.000000)">
                <path d="M46.005,17.9484912 C45.9541228,17.7130526 45.7569298,17.5411228 45.515,17.5411228 C45.2034211,17.5411228 45.0314912,17.7256842 45.0314912,17.9484912 C45.0314912,18.1390175 45.1207895,18.2984912 45.6742982,18.476386 C46.3483333,18.6927018 46.5581579,19.0425263 46.5581579,19.4498947 C46.5581579,20.0095439 46.1511404,20.372 45.5276316,20.372 C44.8535965,20.372 44.5162281,19.977614 44.4209649,19.4498947 L44.9297368,19.4498947 C44.9871053,19.7165614 45.1716667,19.9393684 45.5467544,19.9393684 C45.8841228,19.9393684 46.0560526,19.7423509 46.0560526,19.4881404 C46.0560526,19.2270877 45.9414912,19.0551579 45.3753509,18.8711228 C44.8025439,18.6865614 44.5355263,18.4002456 44.5355263,17.942 C44.5355263,17.4967368 44.8662281,17.1151579 45.4897368,17.1151579 C46.1134211,17.1151579 46.4123684,17.4967368 46.5137719,17.9484912 L46.005,17.9484912 Z M47.6579649,17.2169298 L48.1605965,17.2169298 L48.1605965,17.5985088 L48.1732281,17.5985088 C48.3769123,17.3253509 48.6884912,17.115 49.0827018,17.115 C49.5600702,17.115 49.9477895,17.3886842 50.0753333,17.7448246 C50.227614,17.4397368 50.5967368,17.115 51.1249825,17.115 C51.8116491,17.115 52.2890175,17.5920175 52.2890175,18.4888596 L52.2890175,20.2639474 L51.7865614,20.2639474 L51.7865614,18.4511404 C51.7865614,17.9802632 51.5702456,17.5667544 51.0549825,17.5667544 C50.6290175,17.5667544 50.227614,17.872193 50.227614,18.5720175 L50.227614,20.2639474 L49.7190175,20.2639474 L49.7190175,18.4511404 C49.7190175,17.9483333 49.4453333,17.5667544 48.9939298,17.5667544 C48.484807,17.5667544 48.1605965,17.9358772 48.1605965,18.5720175 L48.1605965,20.2639474 L47.6579649,20.2639474 L47.6579649,17.2169298 Z M54.9332632,19.9267193 C55.5055439,19.9267193 56.0337895,19.443386 56.0337895,18.7565439 C56.0337895,18.0311053 55.5437895,17.5542632 54.9458947,17.5542632 C54.1825614,17.5542632 53.8201053,18.1521579 53.8201053,18.7374211 C53.8201053,19.3223333 54.1825614,19.9267193 54.9332632,19.9267193 Z M56.4916842,20.2640877 L55.9890526,20.2640877 L55.9890526,19.8567193 L55.9764211,19.8567193 C55.7539649,20.1239123 55.3785263,20.3719825 54.8632632,20.3719825 C54.0358947,20.3719825 53.2983509,19.7295263 53.2983509,18.7374211 C53.2983509,17.7958421 53.9855439,17.1151404 54.8950175,17.1151404 C55.4485263,17.1151404 55.7727368,17.4075965 55.9829123,17.6560175 L55.9890526,17.6560175 L55.9890526,17.2168947 L56.4916842,17.2168947 L56.4916842,20.2640877 Z M59.3275439,17.5985614 C59.2514035,17.5859298 59.1687719,17.566807 59.0350877,17.566807 C58.5959649,17.566807 58.2526316,17.878386 58.2526316,18.6482105 L58.2526316,20.264 L57.75,20.264 L57.75,17.2169825 L58.2526316,17.2169825 L58.2526316,17.5985614 L58.2652632,17.5985614 C58.3670175,17.3948772 58.6726316,17.1150526 59.0733333,17.1150526 C59.1814035,17.1150526 59.2575439,17.1215439 59.3275439,17.1341754 L59.3275439,17.5985614 Z M60.0710175,17.2169298 L60.4718947,17.2169298 L60.4718947,16.2439474 L60.9743509,16.2439474 L60.9743509,17.2169298 L61.7887368,17.2169298 L61.7887368,17.6369298 L60.9743509,17.6369298 L60.9743509,19.2460526 C60.9743509,19.742193 61.1271579,19.8758772 61.4513684,19.8758772 C61.578386,19.8758772 61.7059298,19.8565789 61.8204912,19.8248246 L61.8204912,20.2383333 C61.686807,20.2832456 61.5280351,20.302193 61.349614,20.302193 C60.6118947,20.302193 60.4718947,19.8057018 60.4718947,19.2269298 L60.4718947,17.6369298 L60.0710175,17.6369298 L60.0710175,17.2169298 Z M66.3417368,17.5540877 C65.7312105,17.5540877 65.2477018,18.0311053 65.2477018,18.7565439 C65.2477018,19.4497018 65.7694561,19.9267193 66.3543684,19.9267193 C67.0924386,19.9267193 67.461386,19.3221579 67.461386,18.7374211 C67.461386,18.1454912 67.0924386,17.5540877 66.3417368,17.5540877 Z M64.7899825,17.2168947 L65.2920877,17.2168947 L65.2920877,17.6493509 L65.3050702,17.6493509 C65.5084035,17.4079474 65.8329649,17.1149649 66.4501579,17.1149649 C67.4231404,17.1149649 67.9827895,17.9100526 67.9827895,18.7374211 C67.9827895,19.6593509 67.3212105,20.3721579 66.4308596,20.3721579 C65.9091053,20.3721579 65.5275263,20.1237368 65.3050702,19.8570702 L65.2920877,19.8570702 L65.2920877,21.7586491 L64.7899825,21.7586491 L64.7899825,17.2168947 Z M69.3494737,18.4637544 L71.3152632,18.4637544 C71.2642105,17.986386 70.8885965,17.5542807 70.335614,17.5542807 C69.7568421,17.5542807 69.3938596,17.9995439 69.3494737,18.4637544 Z M71.8429825,18.699193 C71.8429825,18.7562105 71.8364912,18.852 71.8303509,18.8837544 L69.3429825,18.8837544 C69.3429825,19.4369123 69.8521053,19.9269123 70.424386,19.9269123 C70.7868421,19.9269123 71.0096491,19.7932281 71.2068421,19.5577895 L71.7859649,19.5577895 C71.5824561,19.9395439 71.1557895,20.372 70.4373684,20.372 C69.47,20.372 68.8215789,19.6470877 68.8215789,18.699193 C68.8215789,17.8593684 69.4129825,17.1151579 70.335614,17.1151579 C71.4422807,17.1218246 71.8429825,18.0312982 71.8429825,18.699193 Z M74.3101579,19.9140351 C74.9524386,19.9140351 75.4168246,19.4052632 75.4168246,18.737193 C75.4168246,18.0945614 74.9782281,17.5666667 74.3101579,17.5666667 C73.661386,17.5666667 73.2034912,18.0631579 73.2034912,18.737193 C73.2034912,19.424386 73.7248947,19.9140351 74.3101579,19.9140351 Z M74.3101579,17.1149123 C75.2580526,17.1149123 75.9385789,17.8147368 75.9385789,18.737193 C75.9385789,19.6342105 75.2519123,20.3722807 74.3101579,20.3722807 C73.3877018,20.3722807 72.6817368,19.6598246 72.6817368,18.737193 C72.6817368,17.795614 73.394193,17.1149123 74.3101579,17.1149123 Z M78.5389298,17.5540877 C77.9284035,17.5540877 77.4448947,18.0311053 77.4448947,18.7565439 C77.4448947,19.4497018 77.9666491,19.9267193 78.5515614,19.9267193 C79.2896316,19.9267193 79.6585789,19.3221579 79.6585789,18.7374211 C79.6585789,18.1454912 79.2896316,17.5540877 78.5389298,17.5540877 Z M76.987,17.2168947 L77.4892807,17.2168947 L77.4892807,17.6493509 L77.5022632,17.6493509 C77.7055965,17.4079474 78.0301579,17.1149649 78.6473509,17.1149649 C79.6203333,17.1149649 80.1799825,17.9100526 80.1799825,18.7374211 C80.1799825,19.6593509 79.5184035,20.3721579 78.6280526,20.3721579 C78.1062982,20.3721579 77.7247193,20.1237368 77.5022632,19.8570702 L77.4892807,19.8570702 L77.4892807,21.7586491 L76.987,21.7586491 L76.987,17.2168947 Z M81.2285965,20.2638596 L81.2285965,15.6836842 L81.7312281,15.6836842 L81.7312281,20.2638596 L81.2285965,20.2638596 Z M83.3081404,18.4637544 L85.2737544,18.4637544 C85.2228772,17.986386 84.8472632,17.5542807 84.2942807,17.5542807 C83.7155088,17.5542807 83.3525263,17.9995439 83.3081404,18.4637544 Z M85.8016491,18.699193 C85.8016491,18.7562105 85.7951579,18.852 85.7890175,18.8837544 L83.3014737,18.8837544 C83.3014737,19.4369123 83.8107719,19.9269123 84.3828772,19.9269123 C84.7455088,19.9269123 84.9683158,19.7932281 85.1653333,19.5577895 L85.7446316,19.5577895 C85.5409474,19.9395439 85.1144561,20.372 84.3960351,20.372 C83.4286667,20.372 82.7802456,19.6470877 82.7802456,18.699193 C82.7802456,17.8593684 83.3716491,17.1151579 84.2942807,17.1151579 C85.4009474,17.1218246 85.8016491,18.0312982 85.8016491,18.699193 Z M46.005,24.6611579 C45.9541228,24.4257193 45.7569298,24.2537895 45.515,24.2537895 C45.2034211,24.2537895 45.0314912,24.4383509 45.0314912,24.6611579 C45.0314912,24.8516842 45.1207895,25.0111579 45.6742982,25.1890526 C46.3483333,25.4053684 46.5581579,25.755193 46.5581579,26.1625614 C46.5581579,26.7222105 46.1511404,27.0846667 45.5276316,27.0846667 C44.8535965,27.0846667 44.5162281,26.6902807 44.4209649,26.1625614 L44.9297368,26.1625614 C44.9871053,26.4292281 45.1716667,26.6520351 45.5467544,26.6520351 C45.8841228,26.6520351 46.0560526,26.4550175 46.0560526,26.200807 C46.0560526,25.9397544 45.9414912,25.7678246 45.3753509,25.5837895 C44.8025439,25.3988772 44.5355263,25.1129123 44.5355263,24.6546667 C44.5355263,24.2094035 44.8662281,23.8278246 45.4897368,23.8278246 C46.1134211,23.8278246 46.4123684,24.2094035 46.5137719,24.6611579 L46.005,24.6611579 Z M47.6579649,23.9295965 L48.1605965,23.9295965 L48.1605965,24.3111754 L48.1732281,24.3111754 C48.3769123,24.0380175 48.6884912,23.8276667 49.0827018,23.8276667 C49.5600702,23.8276667 49.9477895,24.1013509 50.0753333,24.4574912 C50.227614,24.1524035 50.5967368,23.8276667 51.1249825,23.8276667 C51.8116491,23.8276667 52.2890175,24.3046842 52.2890175,25.2015263 L52.2890175,26.976614 L51.7865614,26.976614 L51.7865614,25.163807 C51.7865614,24.6929298 51.5702456,24.2794211 51.0549825,24.2794211 C50.6290175,24.2794211 50.227614,24.5845088 50.227614,25.2846842 L50.227614,26.976614 L49.7190175,26.976614 L49.7190175,25.163807 C49.7190175,24.661 49.4453333,24.2794211 48.9939298,24.2794211 C48.484807,24.2794211 48.1605965,24.6485439 48.1605965,25.2846842 L48.1605965,26.976614 L47.6579649,26.976614 L47.6579649,23.9295965 Z M54.9332632,26.639386 C55.5055439,26.639386 56.0337895,26.1560526 56.0337895,25.4692105 C56.0337895,24.7437719 55.5437895,24.2669298 54.9458947,24.2669298 C54.1825614,24.2669298 53.8201053,24.8648246 53.8201053,25.4500877 C53.8201053,26.035 54.1825614,26.639386 54.9332632,26.639386 Z M56.4916842,26.9767544 L55.9890526,26.9767544 L55.9890526,26.569386 L55.9764211,26.569386 C55.7539649,26.8365789 55.3785263,27.0846491 54.8632632,27.0846491 C54.0358947,27.0846491 53.2983509,26.442193 53.2983509,25.4500877 C53.2983509,24.5085088 53.9855439,23.827807 54.8950175,23.827807 C55.4485263,23.827807 55.7727368,24.1202632 55.9829123,24.3686842 L55.9890526,24.3686842 L55.9890526,23.9295614 L56.4916842,23.9295614 L56.4916842,26.9767544 Z M59.3275439,24.3112105 C59.2514035,24.2985789 59.1687719,24.2794561 59.0350877,24.2794561 C58.5959649,24.2794561 58.2526316,24.5910351 58.2526316,25.3608596 L58.2526316,26.9766491 L57.75,26.9766491 L57.75,23.9296316 L58.2526316,23.9296316 L58.2526316,24.3112105 L58.2652632,24.3112105 C58.3670175,24.1075263 58.6726316,23.8277018 59.0733333,23.8277018 C59.1814035,23.8277018 59.2575439,23.834193 59.3275439,23.8468246 L59.3275439,24.3112105 Z M60.0710175,23.9295965 L60.4718947,23.9295965 L60.4718947,22.9560877 L60.9743509,22.9560877 L60.9743509,23.9295965 L61.7887368,23.9295965 L61.7887368,24.3495965 L60.9743509,24.3495965 L60.9743509,25.9587193 C60.9743509,26.4548596 61.1271579,26.5885439 61.4513684,26.5885439 C61.578386,26.5885439 61.7059298,26.5692456 61.8204912,26.5374912 L61.8204912,26.951 C61.686807,26.9959123 61.5280351,27.0148596 61.349614,27.0148596 C60.6118947,27.0148596 60.4718947,26.5188947 60.4718947,25.9395965 L60.4718947,24.3495965 L60.0710175,24.3495965 L60.0710175,23.9295965 Z M66.2210526,24.6611579 C66.17,24.4257193 65.9729825,24.2537895 65.7310526,24.2537895 C65.4194737,24.2537895 65.2475439,24.4383509 65.2475439,24.6611579 C65.2475439,24.8516842 65.3366667,25.0111579 65.8903509,25.1890526 C66.564386,25.4053684 66.7742105,25.755193 66.7742105,26.1625614 C66.7742105,26.7222105 66.367193,27.0846667 65.7436842,27.0846667 C65.0696491,27.0846667 64.7322807,26.6902807 64.6370175,26.1625614 L65.1457895,26.1625614 C65.2031579,26.4292281 65.3877193,26.6520351 65.762807,26.6520351 C66.1,26.6520351 66.2719298,26.4550175 66.2719298,26.200807 C66.2719298,25.9397544 66.1575439,25.7678246 65.5914035,25.5837895 C65.0185965,25.3988772 64.7514035,25.1129123 64.7514035,24.6546667 C64.7514035,24.2094035 65.0821053,23.8278246 65.7057895,23.8278246 C66.3294737,23.8278246 66.6284211,24.2094035 66.7296491,24.6611579 L66.2210526,24.6611579 Z M69.2925088,26.6267018 C69.9347895,26.6267018 70.3991754,26.1179298 70.3991754,25.4498596 C70.3991754,24.8072281 69.9605789,24.2793333 69.2925088,24.2793333 C68.6437368,24.2793333 68.1858421,24.7758246 68.1858421,25.4498596 C68.1858421,26.1370526 68.7072456,26.6267018 69.2925088,26.6267018 Z M69.2925088,23.8275789 C70.2402281,23.8275789 70.9209298,24.5274035 70.9209298,25.4498596 C70.9209298,26.3468772 70.2342632,27.0849474 69.2925088,27.0849474 C68.3698772,27.0849474 67.6640877,26.3724912 67.6640877,25.4498596 C67.6640877,24.5082807 68.3765439,23.8275789 69.2925088,23.8275789 Z M71.9694737,26.9768421 L71.9694737,22.3966667 L72.4721053,22.3966667 L72.4721053,26.9768421 L71.9694737,26.9768421 Z M76.2880351,26.9766316 L75.7854035,26.9766316 L75.7854035,26.6015439 L75.7727719,26.6015439 C75.5055789,26.964 75.168386,27.0850526 74.8501404,27.0850526 C74.3157544,27.0850526 73.6925965,26.741193 73.6925965,25.7106667 L73.6925965,23.929614 L74.1948772,23.929614 L74.1948772,25.6724211 C74.1948772,26.2894386 74.4876842,26.626807 74.9327719,26.626807 C75.4547018,26.626807 75.7854035,26.2641754 75.7854035,25.5580351 L75.7854035,23.929614 L76.2880351,23.929614 L76.2880351,26.9766316 Z M77.2155088,23.9295965 L77.616386,23.9295965 L77.616386,22.9560877 L78.1188421,22.9560877 L78.1188421,23.9295965 L78.9332281,23.9295965 L78.9332281,24.3495965 L78.1188421,24.3495965 L78.1188421,25.9587193 C78.1188421,26.4548596 78.2716491,26.5885439 78.5958596,26.5885439 C78.7228772,26.5885439 78.8504211,26.5692456 78.9649825,26.5374912 L78.9649825,26.951 C78.8312982,26.9959123 78.6725263,27.0148596 78.4941053,27.0148596 C77.756386,27.0148596 77.616386,26.5188947 77.616386,25.9395965 L77.616386,24.3495965 L77.2155088,24.3495965 L77.2155088,23.9295965 Z M79.9631579,26.9770175 L79.9631579,23.9298246 L80.4657895,23.9298246 L80.4657895,26.9770175 L79.9631579,26.9770175 Z M79.9057895,23.1978947 L79.9057895,22.6064912 L80.5292982,22.6064912 L80.5292982,23.1978947 L79.9057895,23.1978947 Z M83.1428246,26.6267018 C83.7851053,26.6267018 84.2494912,26.1179298 84.2494912,25.4498596 C84.2494912,24.8072281 83.8108947,24.2793333 83.1428246,24.2793333 C82.4940526,24.2793333 82.0361579,24.7758246 82.0361579,25.4498596 C82.0361579,26.1370526 82.5575614,26.6267018 83.1428246,26.6267018 Z M83.1428246,23.8275789 C84.0907193,23.8275789 84.7712456,24.5274035 84.7712456,25.4498596 C84.7712456,26.3468772 84.0845789,27.0849474 83.1428246,27.0849474 C82.2203684,27.0849474 81.5144035,26.3724912 81.5144035,25.4498596 C81.5144035,24.5082807 82.2268596,23.8275789 83.1428246,23.8275789 Z M85.8197193,23.9295965 L86.3223509,23.9295965 L86.3223509,24.3111754 L86.3349825,24.3111754 C86.614807,23.9487193 86.9646316,23.8276667 87.2955088,23.8276667 C87.8488421,23.8276667 88.4977895,24.1715263 88.4977895,25.2015263 L88.4977895,26.976614 L87.9951579,26.976614 L87.9951579,25.233807 C87.9951579,24.6167895 87.6962105,24.2794211 87.219193,24.2794211 C86.6718246,24.2794211 86.3223509,24.6485439 86.3223509,25.3543333 L86.3223509,26.976614 L85.8197193,26.976614 L85.8197193,23.9295965 Z M91.1493509,24.6611579 C91.0984737,24.4257193 90.9012807,24.2537895 90.6593509,24.2537895 C90.3477719,24.2537895 90.1758421,24.4383509 90.1758421,24.6611579 C90.1758421,24.8516842 90.2649649,25.0111579 90.8186491,25.1890526 C91.4926842,25.4053684 91.7025088,25.755193 91.7025088,26.1625614 C91.7025088,26.7222105 91.2954912,27.0846667 90.6719825,27.0846667 C89.9979474,27.0846667 89.6605789,26.6902807 89.5653158,26.1625614 L90.0740877,26.1625614 C90.1314561,26.4292281 90.3160175,26.6520351 90.6911053,26.6520351 C91.0284737,26.6520351 91.2002281,26.4550175 91.2002281,26.200807 C91.2002281,25.9397544 91.0858421,25.7678246 90.5197018,25.5837895 C89.9468947,25.3988772 89.6798772,25.1129123 89.6798772,24.6546667 C89.6798772,24.2094035 90.0104035,23.8278246 90.6340877,23.8278246 C91.2577719,23.8278246 91.5567193,24.2094035 91.6579474,24.6611579 L91.1493509,24.6611579 Z" fill="#737B7D"></path>
                <path d="M39.9267544,19.9377544 C39.9267544,30.9484561 31.0007895,39.8744211 19.9900877,39.8744211 C8.97921053,39.8744211 0.0534210526,30.9484561 0.0534210526,19.9377544 C0.0534210526,8.92687719 8.97921053,0.0010877193 19.9900877,0.0010877193 C31.0007895,0.0010877193 39.9267544,8.92687719 39.9267544,19.9377544" id="Fill-73" fill="#0088BB"></path>
                <polygon id="Fill-74" fill="#F3C34F" points="32.8718596 15.8154737 32.2083509 17.5009123 34.1609825 17.5009123 34.8244912 15.8154737"></polygon>
                <path d="M12.5973158,18.5515614 C13.3374912,19.3305088 13.7125789,20.3171754 13.7125789,21.4843684 C13.7125789,22.6491053 13.3087193,23.624193 12.5117018,24.3824386 C11.7134561,25.1424386 10.7939825,25.5277018 9.77924561,25.5277018 C8.70064912,25.5277018 7.76240351,25.1168246 6.99082456,24.3068246 C6.21801754,23.4954211 5.82608772,22.5324386 5.82608772,21.444193 C5.82608772,20.3562982 6.20801754,19.3962982 6.96152632,18.5910351 C7.71345614,17.7878772 8.66503509,17.3810351 9.78942105,17.3810351 C10.9141579,17.3810351 11.8588947,17.7748947 12.5973158,18.5515614 Z M13.6325789,17.2696316 C12.5711754,16.1185789 11.2664386,15.5357719 9.74924561,15.5357719 C8.13029825,15.5357719 6.73907018,16.1161228 5.61468421,17.2610351 C4.49064912,18.4054211 3.92047368,19.8029649 3.92047368,21.4145439 C3.92047368,23.0257719 4.4832807,24.4261228 5.59380702,25.5766491 C6.70468421,26.7287544 8.06924561,27.3127895 9.64924561,27.3127895 C11.1374912,27.3127895 12.4762632,26.7171754 13.6325789,25.541386 L13.6325789,26.9531404 L15.4978421,26.9531404 L15.4978421,11.4005088 L13.6325789,11.4005088 L13.6325789,17.2696316 Z" id="Fill-75" fill="#FFFFFE"></path>
                <path d="M34.3637018,25.5165789 C33.9838772,25.622193 33.5794912,25.677807 33.1947544,25.677807 C32.2665088,25.677807 31.7638772,25.3704386 31.7638772,23.7495614 L31.7638772,11.4004386 L29.8798421,11.4004386 L29.8798421,15.8155263 L28.6289649,15.8155263 L27.9651053,17.5009649 L29.8798421,17.5009649 L29.8798421,23.6874561 C29.8798421,25.3753509 30.2189649,27.3127193 32.8631754,27.3127193 C33.4900175,27.3127193 34.0044035,27.2428947 34.4356316,27.0995614 L34.5200175,27.0711404 L34.5200175,25.4732456 L34.3637018,25.5165789 Z" id="Fill-76" fill="#FFFFFE"></path>
                <path d="M22.721614,22.6393333 C22.6124912,22.9112632 22.4568772,23.3335439 22.2593333,23.8940702 C22.1647719,24.1619649 22.0777544,24.4138947 22.0123158,24.6042456 C21.8410877,24.1089825 21.5167018,23.1914386 21.2791579,22.6398596 L18.5793333,15.8154737 L16.5991579,15.8154737 L20.9528421,26.8749474 L20.9835439,26.953193 L22.9686316,26.953193 L27.3530175,15.8154737 L25.3965263,15.8154737 L22.721614,22.6393333 Z" id="Fill-77" fill="#FFFFFE"></path>
            </g>
        </g>
    </g>
</svg>